<svg width="1024" height="311" viewBox="0 0 1024 311" fill="none" xmlns="http://www.w3.org/2000/svg">
<path fill-rule="evenodd" clip-rule="evenodd" d="M0 232C0 232 24.6214 228.743 35.6403 227.943C70.9231 225.381 97.3764 226.067 115 228C156.215 232.521 190.716 247 228 247C331 247 536.449 210 614.347 210C692.244 210 702.766 211.905 748 215.905C793.234 219.905 1026 210 1026 210V0H0V232Z" fill="#088488"/>
<path d="M87.6944 141.724C84.2843 98.493 92.4373 56.1182 134.607 36.4103C151.262 28.6375 170.419 27.0308 188.166 31.3484C202.485 34.8284 227.647 46.3666 220.166 66.5149C213.448 84.6163 188.401 88.9152 173.643 96.2909C169.849 98.1829 166.078 100.528 163.714 104.132C159.691 110.267 161.504 120.037 167.988 123.195C182.463 130.254 205.211 108.586 217.674 103.084C235.271 95.2922 257.599 91.9362 276.21 97.9906C289.017 102.172 294.276 115.199 286.861 127.103C283.127 133.095 277.538 137.537 272.621 142.537C267.703 147.537 263.218 153.703 262.774 160.793C261.975 173.547 274.254 183.125 286.099 186.779C297.944 190.432 311.008 190.947 321.43 197.82C334.812 206.654 340.852 224.973 334.411 240.208C329.415 251.994 318.152 260.059 306.193 263.719C290.65 268.502 275.238 266.659 259.844 272" stroke="#000091" stroke-width="2" stroke-dasharray="5.01"/>
<path d="M37.4964 223C38.2472 223.83 39.0885 224.354 38.9925 224.751C38.8745 225.042 38.6718 225.307 38.4009 225.524C38.13 225.74 37.7987 225.902 37.4343 225.996C37.0448 226.064 36.0116 225.274 36.0003 224.859C35.9834 224.363 36.7568 223.853 37.4964 223Z" fill="white"/>
<path d="M63 145L58 150H63V145Z" fill="#546389"/>
<path d="M84 145L89 150H84V145Z" fill="#546389"/>
<path d="M114 177.022H116.105V172.045C116.105 172.045 127.789 169.694 129.32 172.045C130.85 174.396 129.32 179 129.32 179H116.487L114 177.022Z" fill="#12142D"/>
<path d="M38.8947 227H35.1052C32.2858 227 30 224.828 30 222.146V213.854C30 211.177 32.2858 209 35.1052 209H38.8947C41.7141 209 44 211.177 44 213.854V222.177C43.9757 224.828 41.7141 227 38.8947 227Z" fill="#12142D"/>
<path d="M109.531 227H105.469C102.45 227 100 224.828 100 222.146V213.854C100 211.177 102.45 209 105.469 209H109.531C112.55 209 115 211.177 115 213.854V222.177C115 224.828 112.562 227 109.531 227Z" fill="#12142D"/>
<path d="M114 182H32L40.6123 159.672C42.3504 155.089 47.6252 152 53.7207 152H92.346C98.4416 152 103.717 155.076 105.455 159.672L114 182Z" fill="white" stroke="#5770BE" stroke-width="7.47"/>
<path d="M124 196.452V205H22V196.452C22 187.906 28.0533 181 35.5089 181H110.492C117.947 181 124 187.93 124 196.452Z" fill="#5770BE"/>
<path d="M126 210.5C126 212.987 123.473 215 120.358 215H24.648C21.5269 215 19 212.987 19 210.5C19 208.013 21.5269 206 24.648 206H120.358C123.473 206 126 208.013 126 210.5Z" fill="#546389"/>
<path d="M115 201V193L102 195.564V201H115Z" fill="white"/>
<path d="M31 201V193L44 195.564V201H31Z" fill="white"/>
<path d="M32 177.368L29.8744 177.206L30.274 172.702C30.274 172.702 18.6708 169.673 16.9509 171.696C15.231 173.719 16.3695 178.022 16.3695 178.022L29.3051 179L32 177.368Z" fill="#12142D"/>
<path d="M114 182H32L40.6123 159.672C42.3504 155.089 47.6252 152 53.7207 152H92.346C98.4416 152 103.717 155.076 105.455 159.672L114 182Z" fill="white" stroke="#5770BE" stroke-width="5.22"/>
<path d="M54.8253 153C48.9819 153 43.9277 155.778 42.253 159.904L34 180H45.4458L56 153H54.8253Z" fill="#E3F1F2"/>
<path d="M103.779 159.904C102.109 155.778 97.0479 153 91.1972 153H63.2767L54 180H112L103.779 159.904Z" fill="#E3F1F2"/>
<path d="M93 198H52V199H93V198Z" fill="white"/>
<path d="M84.8214 147H73.7666C73.6003 146.97 73.4295 146.97 73.2633 147H62.2025C62.0032 147.001 61.8068 146.954 61.6312 146.866C61.4556 146.778 61.3064 146.65 61.1969 146.493C61.0875 146.337 61.0213 146.158 61.0043 145.972C60.9874 145.785 61.0204 145.598 61.1 145.427L62.0947 143.253C62.1868 143.048 62.3412 142.875 62.5384 142.753C62.7356 142.631 62.9669 142.566 63.2032 142.567H66.2589C66.5175 142.568 66.7691 142.49 66.9765 142.345C67.1838 142.2 67.3357 141.996 67.4094 141.764L68.0086 139.804C68.0825 139.57 68.2352 139.366 68.4438 139.221C68.6523 139.076 68.9054 138.998 69.1649 139H77.841C78.0995 139 78.3513 139.078 78.5586 139.222C78.7659 139.367 78.9177 139.571 78.9914 139.804L79.5906 141.764C79.6646 141.997 79.8173 142.202 80.0259 142.346C80.2344 142.491 80.4875 142.569 80.747 142.567H83.7968C84.034 142.566 84.2666 142.629 84.4651 142.752C84.6634 142.873 84.8188 143.048 84.9112 143.253L85.8999 145.427C85.9788 145.596 86.0119 145.782 85.9962 145.966C85.9805 146.151 85.9164 146.328 85.8097 146.484C85.703 146.64 85.557 146.768 85.3845 146.858C85.2121 146.948 85.0187 146.997 84.8214 147Z" fill="#000091"/>
<path d="M70.8219 141.217H70V141H72V141.217H71.1724V143H70.8219V141.217Z" fill="white"/>
<path fill-rule="evenodd" clip-rule="evenodd" d="M71.3257 143L71.57 142.369H72.4148L72.6693 143H73L72.1858 141H71.8143L71 143H71.3257ZM72.1247 141.592L72.3537 142.168L71.6361 142.173L71.8753 141.588C71.9211 141.469 71.9618 141.345 71.9975 141.226C72.0001 141.234 72.0028 141.243 72.0055 141.252C72.0386 141.359 72.0729 141.47 72.1247 141.592Z" fill="white"/>
<path d="M75.6122 142.996L75.2798 142.57C75.1468 142.403 75.0637 142.292 74.9806 142.177C74.903 142.292 74.8311 142.399 74.698 142.574L74.3823 143H74L74.7922 141.99L74.0277 141H74.421L74.7646 141.469C74.8587 141.597 74.9308 141.699 75.0028 141.806C75.0748 141.687 75.1413 141.597 75.2354 141.469L75.5901 141H75.9778L75.1856 141.973L76 143L75.6122 142.996Z" fill="white"/>
<path d="M76.7175 141V143H76.2824V141H76.7175Z" fill="white"/>
<path d="M65.3158 146L64 150.297C64 150.484 64.0776 150.663 64.2158 150.795C64.354 150.926 64.5413 151 64.7368 151H68.2632C68.4586 151 68.646 150.926 68.7842 150.795C68.9224 150.663 69 150.484 69 150.297L67.6842 146.006L65.3158 146Z" fill="url(#paint0_linear_61_101)"/>
<path d="M83 145.131H65V145.869H83V145.131Z" fill="#546389"/>
<path d="M242.19 149.748C238.502 144.278 231.2 144.02 231.2 144.02C231.2 144.02 224.063 143.225 219.525 151.541C215.273 159.312 221.262 168.975 221.262 168.975C222.451 169.05 227.572 169.081 242.809 167.095L243.493 163.209L245.449 166.75L248 166.425C247.572 162.332 245.716 155.019 242.19 149.748Z" fill="#12142D"/>
<path d="M250.813 224.23L249.814 190L243 192.96L246.288 224.599C245.58 225.146 245.07 225.906 244.831 226.765C244.593 227.625 244.64 228.537 244.965 229.367C245.291 230.198 245.878 230.901 246.639 231.373C247.4 231.845 248.293 232.059 249.187 231.986C250.08 231.912 250.926 231.553 251.597 230.962C252.269 230.371 252.73 229.581 252.913 228.708C253.095 227.836 252.99 226.928 252.611 226.12C252.233 225.312 251.603 224.647 250.813 224.224V224.23Z" fill="#FFB8B8"/>
<path d="M243 193.936C247.083 194.384 250.014 192.479 252 188.645L250.63 181.575C250.63 179.275 249.979 177.035 248.771 175.181C247.564 173.327 245.864 171.954 243.917 171.264L243.191 171L243 193.936Z" fill="white"/>
<path d="M205.626 184.975C205.575 184.981 205.523 184.981 205.471 184.975L198 184.838V184.626L198.62 167.291C198.634 166.934 198.774 166.597 199.008 166.355C199.243 166.113 199.553 165.986 199.871 166.001L205.853 166.306C206.171 166.323 206.47 166.48 206.684 166.744C206.9 167.008 207.013 167.357 206.999 167.715L206.407 184.178C206.398 184.398 206.314 184.608 206.171 184.761C206.029 184.914 205.84 185 205.643 185L205.626 184.975Z" fill="#FECB40"/>
<path d="M205.114 185H205.059L199.2 184.706C199.036 184.697 198.874 184.652 198.725 184.574C198.575 184.495 198.44 184.383 198.329 184.245C198.218 184.107 198.132 183.945 198.075 183.77C198.019 183.593 197.994 183.407 198.001 183.22L198.626 167.299C198.64 166.939 198.78 166.6 199.014 166.357C199.248 166.114 199.558 165.986 199.875 166.001L205.855 166.308C206.012 166.316 206.166 166.358 206.309 166.434C206.452 166.509 206.58 166.615 206.686 166.746C206.793 166.879 206.875 167.033 206.929 167.2C206.982 167.368 207.006 167.547 206.999 167.725L206.374 183.64C206.359 184.006 206.22 184.351 205.986 184.604C205.753 184.857 205.442 184.999 205.119 185H205.114Z" fill="#12142D"/>
<path d="M202 170C202.552 170 203 169.552 203 169C203 168.448 202.552 168 202 168C201.448 168 201 168.448 201 169C201 169.552 201.448 170 202 170Z" fill="#FECB40"/>
<path d="M209.473 189.212V195.464L203.4 185.948C203.833 185.212 204.016 184.357 203.921 183.51C203.826 182.663 203.457 181.87 202.871 181.247C202.284 180.626 201.511 180.209 200.667 180.061C199.823 179.912 198.953 180.039 198.187 180.421C197.421 180.805 196.8 181.424 196.418 182.187C196.035 182.949 195.911 183.814 196.064 184.654C196.217 185.493 196.638 186.259 197.265 186.841C197.893 187.422 198.692 187.785 199.544 187.877L208.032 202.863C208.475 203.642 209.156 204.261 209.978 204.629C210.799 204.996 211.716 205.094 212.597 204.908C213.478 204.721 214.276 204.26 214.875 203.592C215.474 202.924 215.843 202.082 215.928 201.191L217 190.002L209.473 189.212Z" fill="#FFB8B8"/>
<path d="M218 194.94C213.916 195.362 210.979 193.543 209 189.879L210.368 183.114C210.368 180.915 211.018 178.773 212.225 176.999C213.432 175.225 215.132 173.912 217.078 173.249L217.804 173L218 194.94Z" fill="white"/>
<path d="M227.308 307L223 306.247L223.648 288L230 289.11L227.308 307Z" fill="#FFB6B6"/>
<path d="M229 311H214V310.859C213.999 310.091 214.15 309.329 214.442 308.619C214.735 307.908 215.164 307.263 215.705 306.718C216.246 306.175 216.89 305.743 217.597 305.448C218.305 305.153 219.064 305.001 219.83 305H228.987L229 311Z" fill="#12142D"/>
<path d="M249 295.918L244.908 298L235 283.07L241.04 280L249 295.918Z" fill="#FFB6B6"/>
<path d="M252 300.29L238.704 307L238.618 306.837C237.928 305.469 237.811 303.884 238.291 302.429C238.772 300.975 239.813 299.771 241.183 299.081L249.308 295L252 300.29Z" fill="#12142D"/>
<path d="M230 166C234.418 166 238 162.195 238 157.5C238 152.805 234.418 149 230 149C225.582 149 222 152.805 222 157.5C222 162.195 225.582 166 230 166Z" fill="#FFB8B8"/>
<path d="M240.647 150.08L233.278 146L223.108 147.668L221 157.491C231.388 159.063 238.582 159.975 241 157.305L240.647 150.08Z" fill="#12142D"/>
<path d="M217.533 210.278C217.533 210.278 211.417 223.255 218.193 242.456L236.919 292L245.869 286.51L236.746 265.193L244.17 239.095C245.876 233.173 246.396 226.953 245.701 220.815C245.166 216.228 243.9 211.559 241.223 209.213C234.897 203.674 217.533 210.278 217.533 210.278Z" fill="#12142D"/>
<path d="M227.916 260L221 295.254L230.209 297L236 266.48L227.916 260Z" fill="#2F2E41"/>
<path d="M236.505 171L226.103 171.141L217 173.27L217.542 210.347C217.542 210.347 234.003 215.088 241.234 208.512L246 173.808C243.054 172.229 239.825 171.274 236.505 171Z" fill="white"/>
<path d="M235 149C237.762 149 240 146.762 240 144C240 141.238 237.762 139 235 139C232.238 139 230 141.238 230 144C230 146.762 232.238 149 235 149Z" fill="#12142D"/>
<path d="M231.043 145.412C231.041 144.661 231.202 143.919 231.516 143.24C231.831 142.56 232.29 141.96 232.86 141.483C233.43 141.006 234.098 140.666 234.814 140.483C235.53 140.302 236.276 140.285 237 140.433C235.811 139.898 234.462 139.857 233.243 140.32C232.024 140.782 231.031 141.712 230.476 142.909C229.921 144.108 229.848 145.479 230.273 146.73C230.698 147.982 231.586 149.015 232.749 149.608C233.12 149.787 233.511 149.917 233.914 150C233.057 149.592 232.331 148.944 231.822 148.131C231.314 147.319 231.044 146.375 231.043 145.412Z" fill="#2F2E41"/>
<path d="M196.007 91V64.4H201.403V86.098H211.511V91H196.007ZM233.357 87.884C231.571 90.278 228.607 91.76 224.997 91.76C218.195 91.76 214.357 87.01 214.357 81.424C214.357 75.762 217.929 71.088 224.199 71.088C229.519 71.088 233.015 74.698 233.015 79.714C233.015 80.778 232.863 81.766 232.711 82.412H219.297C219.753 85.984 221.957 87.428 224.959 87.428C227.049 87.428 228.873 86.516 229.899 85.148L233.357 87.884ZM224.085 75.04C221.615 75.04 219.981 76.408 219.449 78.916H228.265C228.189 76.978 226.783 75.04 224.085 75.04ZM246.301 88.226L249.493 85.338C250.671 86.82 252.077 87.884 253.901 87.884C255.459 87.884 256.257 86.972 256.257 85.832C256.257 82.488 247.099 83.742 247.099 77.016C247.099 73.634 249.949 71.088 253.939 71.088C256.865 71.088 259.525 72.494 260.893 74.356L257.701 77.168C256.713 75.952 255.459 74.964 253.977 74.964C252.457 74.964 251.735 75.8 251.735 76.788C251.735 80.056 260.893 78.916 260.893 85.528C260.817 89.556 257.587 91.76 253.977 91.76C250.557 91.76 248.125 90.392 246.301 88.226ZM267.772 68.504C266.062 68.504 264.618 67.06 264.618 65.35C264.618 63.64 266.062 62.196 267.772 62.196C269.482 62.196 270.888 63.64 270.888 65.35C270.888 67.06 269.482 68.504 267.772 68.504ZM265.34 91V71.848H270.166V91H265.34ZM277.169 84.008V76.18H273.597V71.848H277.169V67.06H282.033V71.848H287.885V76.18H282.033V84.008C282.033 86.136 283.173 86.972 285.073 86.972C286.403 86.972 287.277 86.82 287.923 86.554V90.772C286.973 91.19 285.833 91.38 284.237 91.38C279.449 91.38 277.169 88.682 277.169 84.008ZM309.468 87.884C307.682 90.278 304.718 91.76 301.108 91.76C294.306 91.76 290.468 87.01 290.468 81.424C290.468 75.762 294.04 71.088 300.31 71.088C305.63 71.088 309.126 74.698 309.126 79.714C309.126 80.778 308.974 81.766 308.822 82.412H295.408C295.864 85.984 298.068 87.428 301.07 87.428C303.16 87.428 304.984 86.516 306.01 85.148L309.468 87.884ZM300.196 75.04C297.726 75.04 296.092 76.408 295.56 78.916H304.376C304.3 76.978 302.894 75.04 300.196 75.04ZM322.716 81.424C322.716 75.838 326.402 71.088 332.444 71.088C335.028 71.088 336.89 71.886 338.372 73.368V62.5H343.236V91H338.372V89.48C336.89 90.962 335.028 91.76 332.444 91.76C326.402 91.76 322.716 87.01 322.716 81.424ZM327.77 81.424C327.77 84.768 329.86 87.2 333.128 87.2C335.294 87.2 337.08 86.288 338.372 84.54V78.308C337.08 76.56 335.294 75.648 333.128 75.648C329.86 75.648 327.77 78.08 327.77 81.424ZM366.654 87.884C364.868 90.278 361.904 91.76 358.294 91.76C351.492 91.76 347.654 87.01 347.654 81.424C347.654 75.762 351.226 71.088 357.496 71.088C362.816 71.088 366.312 74.698 366.312 79.714C366.312 80.778 366.16 81.766 366.008 82.412H352.594C353.05 85.984 355.254 87.428 358.256 87.428C360.346 87.428 362.17 86.516 363.196 85.148L366.654 87.884ZM357.382 75.04C354.912 75.04 353.278 76.408 352.746 78.916H361.562C361.486 76.978 360.08 75.04 357.382 75.04ZM381.27 91V71.848H386.096V73.748C387.35 72.456 388.984 71.468 391.15 71.468C391.796 71.468 392.366 71.582 392.822 71.734V76.484C392.214 76.332 391.568 76.218 390.694 76.218C388.338 76.218 386.818 77.51 386.096 78.726V91H381.27ZM407.025 68.808H402.389L406.341 62.5H411.585L407.025 68.808ZM413.523 87.884C411.737 90.278 408.773 91.76 405.163 91.76C398.361 91.76 394.523 87.01 394.523 81.424C394.523 75.762 398.095 71.088 404.365 71.088C409.685 71.088 413.181 74.698 413.181 79.714C413.181 80.778 413.029 81.766 412.877 82.412H399.463C399.919 85.984 402.123 87.428 405.125 87.428C407.215 87.428 409.039 86.516 410.065 85.148L413.523 87.884ZM404.251 75.04C401.781 75.04 400.147 76.408 399.615 78.916H408.431C408.355 76.978 406.949 75.04 404.251 75.04ZM415.541 71.848H419.113V69.834C419.113 65.768 421.811 62.5 426.599 62.5C428.347 62.5 429.829 62.918 431.045 63.564L428.993 67.592C428.423 67.174 427.663 66.832 426.675 66.832C425.041 66.832 423.977 67.972 423.977 69.72V71.848H429.829V76.18H423.977V91H419.113V76.18H415.541V71.848ZM443.541 68.808H438.905L442.857 62.5H448.101L443.541 68.808ZM450.039 87.884C448.253 90.278 445.289 91.76 441.679 91.76C434.877 91.76 431.039 87.01 431.039 81.424C431.039 75.762 434.611 71.088 440.881 71.088C446.201 71.088 449.697 74.698 449.697 79.714C449.697 80.778 449.545 81.766 449.393 82.412H435.979C436.435 85.984 438.639 87.428 441.641 87.428C443.731 87.428 445.555 86.516 446.581 85.148L450.039 87.884ZM440.767 75.04C438.297 75.04 436.663 76.408 436.131 78.916H444.947C444.871 76.978 443.465 75.04 440.767 75.04ZM454.412 91V71.848H459.238V73.748C460.492 72.456 462.126 71.468 464.292 71.468C464.938 71.468 465.508 71.582 465.964 71.734V76.484C465.356 76.332 464.71 76.218 463.836 76.218C461.48 76.218 459.96 77.51 459.238 78.726V91H454.412ZM486.666 87.884C484.88 90.278 481.916 91.76 478.306 91.76C471.504 91.76 467.666 87.01 467.666 81.424C467.666 75.762 471.238 71.088 477.508 71.088C482.828 71.088 486.324 74.698 486.324 79.714C486.324 80.778 486.172 81.766 486.02 82.412H472.606C473.062 85.984 475.266 87.428 478.268 87.428C480.358 87.428 482.182 86.516 483.208 85.148L486.666 87.884ZM477.394 75.04C474.924 75.04 473.29 76.408 472.758 78.916H481.574C481.498 76.978 480.092 75.04 477.394 75.04ZM491.039 91V71.848H495.865V73.368C497.195 72.076 498.981 71.088 501.527 71.088C505.669 71.088 508.975 73.938 508.975 79.6V91H504.111V79.79C504.111 77.244 502.667 75.648 500.311 75.648C497.879 75.648 496.587 77.282 495.865 78.498V91H491.039ZM523.651 87.2C525.551 87.2 527.071 86.326 527.983 84.996L531.745 87.884C529.959 90.24 527.147 91.76 523.651 91.76C517.039 91.76 513.087 87.01 513.087 81.424C513.087 75.838 517.039 71.088 523.651 71.088C527.147 71.088 529.959 72.608 531.745 74.964L527.983 77.852C527.071 76.522 525.551 75.648 523.575 75.648C520.421 75.648 518.103 78.08 518.103 81.424C518.103 84.806 520.421 87.2 523.651 87.2ZM552.238 87.884C550.452 90.278 547.488 91.76 543.878 91.76C537.076 91.76 533.238 87.01 533.238 81.424C533.238 75.762 536.81 71.088 543.08 71.088C548.4 71.088 551.896 74.698 551.896 79.714C551.896 80.778 551.744 81.766 551.592 82.412H538.178C538.634 85.984 540.838 87.428 543.84 87.428C545.93 87.428 547.754 86.516 548.78 85.148L552.238 87.884ZM542.966 75.04C540.496 75.04 538.862 76.408 538.33 78.916H547.146C547.07 76.978 545.664 75.04 542.966 75.04ZM566.854 100.348V71.848H571.68V73.406C573.162 71.924 575.024 71.088 577.646 71.088C583.726 71.088 587.374 75.838 587.374 81.424C587.374 87.01 583.726 91.76 577.646 91.76C575.024 91.76 573.162 90.924 571.68 89.442V100.348H566.854ZM576.962 75.648C574.72 75.648 572.896 76.636 571.68 78.422V84.426C572.972 86.25 574.758 87.2 576.962 87.2C580.23 87.2 582.358 84.768 582.358 81.424C582.358 78.08 580.23 75.648 576.962 75.648ZM601.097 71.088C607.329 71.088 611.585 75.686 611.585 81.424C611.585 87.162 607.329 91.76 601.097 91.76C594.865 91.76 590.609 87.162 590.609 81.424C590.609 75.686 594.865 71.088 601.097 71.088ZM601.173 87.2C604.251 87.2 606.569 84.73 606.569 81.424C606.569 78.08 604.251 75.648 601.173 75.648C597.981 75.648 595.625 78.08 595.625 81.424C595.625 84.768 597.981 87.2 601.173 87.2ZM628.603 82.716V71.848H633.467V82.488C633.467 88.226 630.123 91.76 624.499 91.76C618.875 91.76 615.569 88.226 615.569 82.488V71.848H620.433V82.716C620.433 85.49 621.877 87.2 624.537 87.2C627.159 87.2 628.603 85.49 628.603 82.716ZM638.809 91V71.848H643.635V73.748C644.889 72.456 646.523 71.468 648.689 71.468C649.335 71.468 649.905 71.582 650.361 71.734V76.484C649.753 76.332 649.107 76.218 648.233 76.218C645.877 76.218 644.357 77.51 643.635 78.726V91H638.809ZM664.489 91V62.5H669.315V91H664.489ZM680.498 91.57C676.66 91.57 674.038 89.366 674.038 85.832C674.038 82.944 676.28 80.778 680.384 80.094L686.236 79.106V78.612C686.236 76.598 684.716 75.306 682.512 75.306C680.65 75.306 679.206 76.18 678.18 77.586L674.646 74.888C676.356 72.532 679.168 71.088 682.664 71.088C688.212 71.088 691.062 74.394 691.062 78.612V91H686.236V89.138C685.02 90.62 682.74 91.57 680.498 91.57ZM678.826 85.604C678.826 86.896 679.852 87.732 681.486 87.732C683.69 87.732 685.286 86.706 686.236 85.186V82.488L681.676 83.248C679.662 83.59 678.826 84.426 678.826 85.604ZM704.93 94.344C704.93 92.444 705.88 90.924 707.59 89.67C706.83 88.91 706.412 87.884 706.412 86.896C706.412 85.376 707.058 84.16 708.502 83.096C706.83 81.842 705.918 79.942 705.918 77.814C705.918 74.09 708.806 71.088 713.594 71.088C715.076 71.088 716.368 71.354 717.47 71.848H724.462V75.952H721.08C721.27 76.56 721.346 77.168 721.346 77.814C721.346 81.576 718.534 84.616 713.594 84.616C712.948 84.616 712.34 84.578 711.77 84.464C711.352 84.844 711.124 85.262 711.124 85.68C711.124 86.44 711.542 86.82 712.416 86.82H717.242C722.068 86.82 724.69 89.404 724.69 92.976C724.69 97.232 720.624 100.5 714.658 100.5C708.54 100.5 704.93 98.372 704.93 94.344ZM713.67 80.968C715.684 80.968 716.976 79.714 716.976 77.814C716.976 75.914 715.684 74.698 713.67 74.698C711.58 74.698 710.326 75.952 710.326 77.814C710.326 79.714 711.58 80.968 713.67 80.968ZM709.49 93.66C709.49 95.484 711.238 96.624 714.62 96.624C718.116 96.624 719.902 95.332 719.902 93.432C719.902 91.988 719.028 90.962 716.71 90.962H710.782C710.06 91.646 709.49 92.482 709.49 93.66ZM744.724 87.884C742.938 90.278 739.974 91.76 736.364 91.76C729.562 91.76 725.724 87.01 725.724 81.424C725.724 75.762 729.296 71.088 735.566 71.088C740.886 71.088 744.382 74.698 744.382 79.714C744.382 80.778 744.23 81.766 744.078 82.412H730.664C731.12 85.984 733.324 87.428 736.326 87.428C738.416 87.428 740.24 86.516 741.266 85.148L744.724 87.884ZM735.452 75.04C732.982 75.04 731.348 76.408 730.816 78.916H739.632C739.556 76.978 738.15 75.04 735.452 75.04ZM747.166 88.226L750.358 85.338C751.536 86.82 752.942 87.884 754.766 87.884C756.324 87.884 757.122 86.972 757.122 85.832C757.122 82.488 747.964 83.742 747.964 77.016C747.964 73.634 750.814 71.088 754.804 71.088C757.73 71.088 760.39 72.494 761.758 74.356L758.566 77.168C757.578 75.952 756.324 74.964 754.842 74.964C753.322 74.964 752.6 75.8 752.6 76.788C752.6 80.056 761.758 78.916 761.758 85.528C761.682 89.556 758.452 91.76 754.842 91.76C751.422 91.76 748.99 90.392 747.166 88.226ZM767.718 84.008V76.18H764.146V71.848H767.718V67.06H772.582V71.848H778.434V76.18H772.582V84.008C772.582 86.136 773.722 86.972 775.622 86.972C776.952 86.972 777.826 86.82 778.472 86.554V90.772C777.522 91.19 776.382 91.38 774.786 91.38C769.998 91.38 767.718 88.682 767.718 84.008ZM785.188 68.504C783.478 68.504 782.034 67.06 782.034 65.35C782.034 63.64 783.478 62.196 785.188 62.196C786.898 62.196 788.304 63.64 788.304 65.35C788.304 67.06 786.898 68.504 785.188 68.504ZM782.756 91V71.848H787.582V91H782.756ZM802.489 71.088C808.721 71.088 812.977 75.686 812.977 81.424C812.977 87.162 808.721 91.76 802.489 91.76C796.257 91.76 792.001 87.162 792.001 81.424C792.001 75.686 796.257 71.088 802.489 71.088ZM802.565 87.2C805.643 87.2 807.961 84.73 807.961 81.424C807.961 78.08 805.643 75.648 802.565 75.648C799.373 75.648 797.017 78.08 797.017 81.424C797.017 84.768 799.373 87.2 802.565 87.2ZM817.379 91V71.848H822.205V73.368C823.535 72.076 825.321 71.088 827.867 71.088C832.009 71.088 835.315 73.938 835.315 79.6V91H830.451V79.79C830.451 77.244 829.007 75.648 826.651 75.648C824.219 75.648 822.927 77.282 822.205 78.498V91H817.379ZM278.63 134.424C278.63 128.838 282.316 124.088 288.358 124.088C290.942 124.088 292.804 124.886 294.286 126.368V115.5H299.15V144H294.286V142.48C292.804 143.962 290.942 144.76 288.358 144.76C282.316 144.76 278.63 140.01 278.63 134.424ZM283.684 134.424C283.684 137.768 285.774 140.2 289.042 140.2C291.208 140.2 292.994 139.288 294.286 137.54V131.308C292.994 129.56 291.208 128.648 289.042 128.648C285.774 128.648 283.684 131.08 283.684 134.424ZM322.568 140.884C320.782 143.278 317.818 144.76 314.208 144.76C307.406 144.76 303.568 140.01 303.568 134.424C303.568 128.762 307.14 124.088 313.41 124.088C318.73 124.088 322.226 127.698 322.226 132.714C322.226 133.778 322.074 134.766 321.922 135.412H308.508C308.964 138.984 311.168 140.428 314.17 140.428C316.26 140.428 318.084 139.516 319.11 138.148L322.568 140.884ZM313.296 128.04C310.826 128.04 309.192 129.408 308.66 131.916H317.476C317.4 129.978 315.994 128.04 313.296 128.04ZM325.01 141.226L328.202 138.338C329.38 139.82 330.786 140.884 332.61 140.884C334.168 140.884 334.966 139.972 334.966 138.832C334.966 135.488 325.808 136.742 325.808 130.016C325.808 126.634 328.658 124.088 332.648 124.088C335.574 124.088 338.234 125.494 339.602 127.356L336.41 130.168C335.422 128.952 334.168 127.964 332.686 127.964C331.166 127.964 330.444 128.8 330.444 129.788C330.444 133.056 339.602 131.916 339.602 138.528C339.526 142.556 336.296 144.76 332.686 144.76C329.266 144.76 326.834 143.392 325.01 141.226ZM354.291 144V115.5H359.117V144H354.291ZM367.337 121.504C365.627 121.504 364.183 120.06 364.183 118.35C364.183 116.64 365.627 115.196 367.337 115.196C369.047 115.196 370.453 116.64 370.453 118.35C370.453 120.06 369.047 121.504 367.337 121.504ZM364.905 144V124.848H369.731V144H364.905ZM384.714 140.2C386.614 140.2 388.134 139.326 389.046 137.996L392.808 140.884C391.022 143.24 388.21 144.76 384.714 144.76C378.102 144.76 374.15 140.01 374.15 134.424C374.15 128.838 378.102 124.088 384.714 124.088C388.21 124.088 391.022 125.608 392.808 127.964L389.046 130.852C388.134 129.522 386.614 128.648 384.638 128.648C381.484 128.648 379.166 131.08 379.166 134.424C379.166 137.806 381.484 140.2 384.714 140.2ZM413.3 140.884C411.514 143.278 408.55 144.76 404.94 144.76C398.138 144.76 394.3 140.01 394.3 134.424C394.3 128.762 397.872 124.088 404.142 124.088C409.462 124.088 412.958 127.698 412.958 132.714C412.958 133.778 412.806 134.766 412.654 135.412H399.24C399.696 138.984 401.9 140.428 404.902 140.428C406.992 140.428 408.816 139.516 409.842 138.148L413.3 140.884ZM404.028 128.04C401.558 128.04 399.924 129.408 399.392 131.916H408.208C408.132 129.978 406.726 128.04 404.028 128.04ZM417.674 144V124.848H422.5V126.368C423.83 125.076 425.616 124.088 428.162 124.088C432.304 124.088 435.61 126.938 435.61 132.6V144H430.746V132.79C430.746 130.244 429.302 128.648 426.946 128.648C424.514 128.648 423.222 130.282 422.5 131.498V144H417.674ZM450.286 140.2C452.186 140.2 453.706 139.326 454.618 137.996L458.38 140.884C456.594 143.24 453.782 144.76 450.286 144.76C443.674 144.76 439.722 140.01 439.722 134.424C439.722 128.838 443.674 124.088 450.286 124.088C453.782 124.088 456.594 125.608 458.38 127.964L454.618 130.852C453.706 129.522 452.186 128.648 450.21 128.648C447.056 128.648 444.738 131.08 444.738 134.424C444.738 137.806 447.056 140.2 450.286 140.2ZM478.873 140.884C477.087 143.278 474.123 144.76 470.513 144.76C463.711 144.76 459.873 140.01 459.873 134.424C459.873 128.762 463.445 124.088 469.715 124.088C475.035 124.088 478.531 127.698 478.531 132.714C478.531 133.778 478.379 134.766 478.227 135.412H464.813C465.269 138.984 467.473 140.428 470.475 140.428C472.565 140.428 474.389 139.516 475.415 138.148L478.873 140.884ZM469.601 128.04C467.131 128.04 465.497 129.408 464.965 131.916H473.781C473.705 129.978 472.299 128.04 469.601 128.04ZM481.315 141.226L484.507 138.338C485.685 139.82 487.091 140.884 488.915 140.884C490.473 140.884 491.271 139.972 491.271 138.832C491.271 135.488 482.113 136.742 482.113 130.016C482.113 126.634 484.963 124.088 488.953 124.088C491.879 124.088 494.539 125.494 495.907 127.356L492.715 130.168C491.727 128.952 490.473 127.964 488.991 127.964C487.471 127.964 486.749 128.8 486.749 129.788C486.749 133.056 495.907 131.916 495.907 138.528C495.831 142.556 492.601 144.76 488.991 144.76C485.571 144.76 483.139 143.392 481.315 141.226ZM509.228 134.424C509.228 128.838 512.914 124.088 518.956 124.088C521.54 124.088 523.402 124.886 524.884 126.368V115.5H529.748V144H524.884V142.48C523.402 143.962 521.54 144.76 518.956 144.76C512.914 144.76 509.228 140.01 509.228 134.424ZM514.282 134.424C514.282 137.768 516.372 140.2 519.64 140.2C521.806 140.2 523.592 139.288 524.884 137.54V131.308C523.592 129.56 521.806 128.648 519.64 128.648C516.372 128.648 514.282 131.08 514.282 134.424ZM553.166 140.884C551.38 143.278 548.416 144.76 544.806 144.76C538.004 144.76 534.166 140.01 534.166 134.424C534.166 128.762 537.738 124.088 544.008 124.088C549.328 124.088 552.824 127.698 552.824 132.714C552.824 133.778 552.672 134.766 552.52 135.412H539.106C539.562 138.984 541.766 140.428 544.768 140.428C546.858 140.428 548.682 139.516 549.708 138.148L553.166 140.884ZM543.894 128.04C541.424 128.04 539.79 129.408 539.258 131.916H548.074C547.998 129.978 546.592 128.04 543.894 128.04ZM568.998 137.008V129.18H565.426V124.848H568.998V120.06H573.862V124.848H579.714V129.18H573.862V137.008C573.862 139.136 575.002 139.972 576.902 139.972C578.232 139.972 579.106 139.82 579.752 139.554V143.772C578.802 144.19 577.662 144.38 576.066 144.38C571.278 144.38 568.998 141.682 568.998 137.008ZM589.431 144.57C585.593 144.57 582.971 142.366 582.971 138.832C582.971 135.944 585.213 133.778 589.317 133.094L595.169 132.106V131.612C595.169 129.598 593.649 128.306 591.445 128.306C589.583 128.306 588.139 129.18 587.113 130.586L583.579 127.888C585.289 125.532 588.101 124.088 591.597 124.088C597.145 124.088 599.995 127.394 599.995 131.612V144H595.169V142.138C593.953 143.62 591.673 144.57 589.431 144.57ZM587.759 138.604C587.759 139.896 588.785 140.732 590.419 140.732C592.623 140.732 594.219 139.706 595.169 138.186V135.488L590.609 136.248C588.595 136.59 587.759 137.426 587.759 138.604ZM608.98 144H603.432L610.196 134.158L603.812 124.848H609.322L613.274 130.738L617.226 124.848H622.774L616.352 134.158L623.116 144H617.606L613.274 137.578L608.98 144ZM629.217 121.504C627.507 121.504 626.063 120.06 626.063 118.35C626.063 116.64 627.507 115.196 629.217 115.196C630.927 115.196 632.333 116.64 632.333 118.35C632.333 120.06 630.927 121.504 629.217 121.504ZM626.785 144V124.848H631.611V144H626.785ZM651.479 133.512C651.479 139.744 653.569 144.608 657.711 148.75L654.291 151.6C649.541 147.306 646.691 141.15 646.691 133.512C646.691 125.798 649.807 119.642 654.291 115.5L657.711 118.35C653.721 122.302 651.479 127.318 651.479 133.512ZM659.128 144L669.198 117.4H676.266L686.336 144H680.598L678.052 137.084H667.412L664.866 144H659.128ZM669.084 132.486H676.38L672.732 122.492L669.084 132.486ZM690.823 144V117.4H701.273C709.709 117.4 715.409 123.518 715.409 130.7C715.409 137.882 709.709 144 701.273 144H690.823ZM701.349 122.302H696.219V139.098H701.349C706.289 139.098 709.861 135.412 709.861 130.7C709.861 125.95 706.289 122.302 701.349 122.302ZM718.265 140.314L722.179 136.704C723.775 138.756 725.903 139.972 728.069 139.972C730.197 139.972 731.489 138.832 731.489 136.932C731.489 132.03 719.405 133.36 719.405 124.354C719.405 120.136 722.901 116.64 727.993 116.64C731.983 116.64 735.023 118.426 737.303 121.124L733.351 124.696C731.793 122.682 730.045 121.352 728.031 121.352C726.131 121.352 724.877 122.568 724.877 124.164C724.877 128.99 736.961 127.622 736.961 136.742C736.885 141.758 733.009 144.76 728.107 144.76C723.623 144.76 720.621 143.126 718.265 140.314ZM746.153 133.588C746.153 127.356 744.063 122.454 739.883 118.35L743.303 115.5C748.015 119.756 750.903 125.912 750.903 133.588C750.903 141.302 747.825 147.42 743.303 151.6L739.883 148.75C743.949 144.798 746.153 139.782 746.153 133.588Z" fill="white"/>
<defs>
<linearGradient id="paint0_linear_61_101" x1="64.0197" y1="151.004" x2="69.0198" y2="151.004" gradientUnits="userSpaceOnUse">
<stop offset="0.08" stop-color="#3FE946"/>
<stop offset="0.14" stop-color="#43E94A"/>
<stop offset="0.2" stop-color="#4EEB54"/>
<stop offset="0.26" stop-color="#61ED66"/>
<stop offset="0.32" stop-color="#7BF080"/>
<stop offset="0.38" stop-color="#9DF4A0"/>
<stop offset="0.44" stop-color="#C6F9C8"/>
<stop offset="0.49" stop-color="#F7FEF7"/>
<stop offset="0.5" stop-color="white"/>
<stop offset="0.53" stop-color="#E4FCE5"/>
<stop offset="0.59" stop-color="#B6F7B9"/>
<stop offset="0.65" stop-color="#8EF292"/>
<stop offset="0.71" stop-color="#6DEE73"/>
<stop offset="0.78" stop-color="#54EC5B"/>
<stop offset="0.84" stop-color="#42EA4A"/>
<stop offset="0.91" stop-color="#37E83F"/>
<stop offset="0.99" stop-color="#34E83C"/>
</linearGradient>
</defs>
</svg>
