<svg width="1024" height="311" viewBox="0 0 1024 311" fill="none" xmlns="http://www.w3.org/2000/svg">
<path fill-rule="evenodd" clip-rule="evenodd" d="M0 232C0 232 24.6214 228.743 35.6403 227.943C70.9231 225.381 97.3764 226.067 115 228C156.215 232.521 190.716 247 228 247C331 247 536.449 210 614.347 210C692.244 210 702.766 211.905 748 215.905C793.234 219.905 1026 210 1026 210V0H0V232Z" fill="#088488"/>
<path d="M87.6944 141.724C84.2843 98.493 92.4373 56.1182 134.607 36.4103C151.262 28.6375 170.419 27.0308 188.166 31.3484C202.485 34.8284 227.647 46.3666 220.166 66.5149C213.448 84.6163 188.401 88.9152 173.643 96.2909C169.849 98.1829 166.078 100.528 163.714 104.132C159.691 110.267 161.504 120.037 167.988 123.195C182.463 130.254 205.211 108.586 217.674 103.084C235.271 95.2922 257.599 91.9362 276.21 97.9906C289.017 102.172 294.276 115.199 286.861 127.103C283.127 133.095 277.538 137.537 272.621 142.537C267.703 147.537 263.218 153.703 262.774 160.793C261.975 173.547 274.254 183.125 286.099 186.779C297.944 190.432 311.008 190.947 321.43 197.82C334.812 206.654 340.852 224.973 334.411 240.208C329.415 251.994 318.152 260.059 306.193 263.719C290.65 268.502 275.238 266.659 259.844 272" stroke="#000091" stroke-width="2" stroke-dasharray="5.01"/>
<path d="M37.4964 223C38.2472 223.83 39.0885 224.354 38.9925 224.751C38.8745 225.042 38.6718 225.307 38.4009 225.524C38.13 225.74 37.7987 225.902 37.4343 225.996C37.0448 226.064 36.0116 225.274 36.0003 224.859C35.9834 224.363 36.7568 223.853 37.4964 223Z" fill="white"/>
<path d="M63 145L58 150H63V145Z" fill="#546389"/>
<path d="M84 145L89 150H84V145Z" fill="#546389"/>
<path d="M114 177.022H116.105V172.045C116.105 172.045 127.789 169.694 129.32 172.045C130.85 174.396 129.32 179 129.32 179H116.487L114 177.022Z" fill="#12142D"/>
<path d="M38.8947 227H35.1052C32.2858 227 30 224.828 30 222.146V213.854C30 211.177 32.2858 209 35.1052 209H38.8947C41.7141 209 44 211.177 44 213.854V222.177C43.9757 224.828 41.7141 227 38.8947 227Z" fill="#12142D"/>
<path d="M109.531 227H105.469C102.45 227 100 224.828 100 222.146V213.854C100 211.177 102.45 209 105.469 209H109.531C112.55 209 115 211.177 115 213.854V222.177C115 224.828 112.562 227 109.531 227Z" fill="#12142D"/>
<path d="M114 182H32L40.6123 159.672C42.3504 155.089 47.6252 152 53.7207 152H92.346C98.4416 152 103.717 155.076 105.455 159.672L114 182Z" fill="white" stroke="#5770BE" stroke-width="7.47"/>
<path d="M124 196.452V205H22V196.452C22 187.906 28.0533 181 35.5089 181H110.492C117.947 181 124 187.93 124 196.452Z" fill="#5770BE"/>
<path d="M126 210.5C126 212.987 123.473 215 120.358 215H24.648C21.5269 215 19 212.987 19 210.5C19 208.013 21.5269 206 24.648 206H120.358C123.473 206 126 208.013 126 210.5Z" fill="#546389"/>
<path d="M115 201V193L102 195.564V201H115Z" fill="white"/>
<path d="M31 201V193L44 195.564V201H31Z" fill="white"/>
<path d="M32 177.368L29.8744 177.206L30.274 172.702C30.274 172.702 18.6708 169.673 16.9509 171.696C15.231 173.719 16.3695 178.022 16.3695 178.022L29.3051 179L32 177.368Z" fill="#12142D"/>
<path d="M114 182H32L40.6123 159.672C42.3504 155.089 47.6252 152 53.7207 152H92.346C98.4416 152 103.717 155.076 105.455 159.672L114 182Z" fill="white" stroke="#5770BE" stroke-width="5.22"/>
<path d="M54.8253 153C48.9819 153 43.9277 155.778 42.253 159.904L34 180H45.4458L56 153H54.8253Z" fill="#E3F1F2"/>
<path d="M103.779 159.904C102.109 155.778 97.0479 153 91.1972 153H63.2767L54 180H112L103.779 159.904Z" fill="#E3F1F2"/>
<path d="M93 198H52V199H93V198Z" fill="white"/>
<path d="M84.8214 147H73.7666C73.6003 146.97 73.4295 146.97 73.2633 147H62.2025C62.0032 147.001 61.8068 146.954 61.6312 146.866C61.4556 146.778 61.3064 146.65 61.1969 146.493C61.0875 146.337 61.0213 146.158 61.0043 145.972C60.9874 145.785 61.0204 145.598 61.1 145.427L62.0947 143.253C62.1868 143.048 62.3412 142.875 62.5384 142.753C62.7356 142.631 62.9669 142.566 63.2032 142.567H66.2589C66.5175 142.568 66.7691 142.49 66.9765 142.345C67.1838 142.2 67.3357 141.996 67.4094 141.764L68.0086 139.804C68.0825 139.57 68.2352 139.366 68.4438 139.221C68.6523 139.076 68.9054 138.998 69.1649 139H77.841C78.0995 139 78.3513 139.078 78.5586 139.222C78.7659 139.367 78.9177 139.571 78.9914 139.804L79.5906 141.764C79.6646 141.997 79.8173 142.202 80.0259 142.346C80.2344 142.491 80.4875 142.569 80.747 142.567H83.7968C84.034 142.566 84.2666 142.629 84.4651 142.752C84.6634 142.873 84.8188 143.048 84.9112 143.253L85.8999 145.427C85.9788 145.596 86.0119 145.782 85.9962 145.966C85.9805 146.151 85.9164 146.328 85.8097 146.484C85.703 146.64 85.557 146.768 85.3845 146.858C85.2121 146.948 85.0187 146.997 84.8214 147Z" fill="#000091"/>
<path d="M70.8219 141.217H70V141H72V141.217H71.1724V143H70.8219V141.217Z" fill="white"/>
<path fill-rule="evenodd" clip-rule="evenodd" d="M71.3257 143L71.57 142.369H72.4148L72.6693 143H73L72.1858 141H71.8143L71 143H71.3257ZM72.1247 141.592L72.3537 142.168L71.6361 142.173L71.8753 141.588C71.9211 141.469 71.9618 141.345 71.9975 141.226C72.0001 141.234 72.0028 141.243 72.0055 141.252C72.0386 141.359 72.0729 141.47 72.1247 141.592Z" fill="white"/>
<path d="M75.6122 142.996L75.2798 142.57C75.1468 142.403 75.0637 142.292 74.9806 142.177C74.903 142.292 74.8311 142.399 74.698 142.574L74.3823 143H74L74.7922 141.99L74.0277 141H74.421L74.7646 141.469C74.8587 141.597 74.9308 141.699 75.0028 141.806C75.0748 141.687 75.1413 141.597 75.2354 141.469L75.5901 141H75.9778L75.1856 141.973L76 143L75.6122 142.996Z" fill="white"/>
<path d="M76.7175 141V143H76.2824V141H76.7175Z" fill="white"/>
<path d="M65.3158 146L64 150.297C64 150.484 64.0776 150.663 64.2158 150.795C64.354 150.926 64.5413 151 64.7368 151H68.2632C68.4586 151 68.646 150.926 68.7842 150.795C68.9224 150.663 69 150.484 69 150.297L67.6842 146.006L65.3158 146Z" fill="url(#paint0_linear_61_101)"/>
<path d="M83 145.131H65V145.869H83V145.131Z" fill="#546389"/>
<path d="M242.19 149.748C238.502 144.278 231.2 144.02 231.2 144.02C231.2 144.02 224.063 143.225 219.525 151.541C215.273 159.312 221.262 168.975 221.262 168.975C222.451 169.05 227.572 169.081 242.809 167.095L243.493 163.209L245.449 166.75L248 166.425C247.572 162.332 245.716 155.019 242.19 149.748Z" fill="#12142D"/>
<path d="M250.813 224.23L249.814 190L243 192.96L246.288 224.599C245.58 225.146 245.07 225.906 244.831 226.765C244.593 227.625 244.64 228.537 244.965 229.367C245.291 230.198 245.878 230.901 246.639 231.373C247.4 231.845 248.293 232.059 249.187 231.986C250.08 231.912 250.926 231.553 251.597 230.962C252.269 230.371 252.73 229.581 252.913 228.708C253.095 227.836 252.99 226.928 252.611 226.12C252.233 225.312 251.603 224.647 250.813 224.224V224.23Z" fill="#FFB8B8"/>
<path d="M243 193.936C247.083 194.384 250.014 192.479 252 188.645L250.63 181.575C250.63 179.275 249.979 177.035 248.771 175.181C247.564 173.327 245.864 171.954 243.917 171.264L243.191 171L243 193.936Z" fill="white"/>
<path d="M205.626 184.975C205.575 184.981 205.523 184.981 205.471 184.975L198 184.838V184.626L198.62 167.291C198.634 166.934 198.774 166.597 199.008 166.355C199.243 166.113 199.553 165.986 199.871 166.001L205.853 166.306C206.171 166.323 206.47 166.48 206.684 166.744C206.9 167.008 207.013 167.357 206.999 167.715L206.407 184.178C206.398 184.398 206.314 184.608 206.171 184.761C206.029 184.914 205.84 185 205.643 185L205.626 184.975Z" fill="#FECB40"/>
<path d="M205.114 185H205.059L199.2 184.706C199.036 184.697 198.874 184.652 198.725 184.574C198.575 184.495 198.44 184.383 198.329 184.245C198.218 184.107 198.132 183.945 198.075 183.77C198.019 183.593 197.994 183.407 198.001 183.22L198.626 167.299C198.64 166.939 198.78 166.6 199.014 166.357C199.248 166.114 199.558 165.986 199.875 166.001L205.855 166.308C206.012 166.316 206.166 166.358 206.309 166.434C206.452 166.509 206.58 166.615 206.686 166.746C206.793 166.879 206.875 167.033 206.929 167.2C206.982 167.368 207.006 167.547 206.999 167.725L206.374 183.64C206.359 184.006 206.22 184.351 205.986 184.604C205.753 184.857 205.442 184.999 205.119 185H205.114Z" fill="#12142D"/>
<path d="M202 170C202.552 170 203 169.552 203 169C203 168.448 202.552 168 202 168C201.448 168 201 168.448 201 169C201 169.552 201.448 170 202 170Z" fill="#FECB40"/>
<path d="M209.473 189.212V195.464L203.4 185.948C203.833 185.212 204.016 184.357 203.921 183.51C203.826 182.663 203.457 181.87 202.871 181.247C202.284 180.626 201.511 180.209 200.667 180.061C199.823 179.912 198.953 180.039 198.187 180.421C197.421 180.805 196.8 181.424 196.418 182.187C196.035 182.949 195.911 183.814 196.064 184.654C196.217 185.493 196.638 186.259 197.265 186.841C197.893 187.422 198.692 187.785 199.544 187.877L208.032 202.863C208.475 203.642 209.156 204.261 209.978 204.629C210.799 204.996 211.716 205.094 212.597 204.908C213.478 204.721 214.276 204.26 214.875 203.592C215.474 202.924 215.843 202.082 215.928 201.191L217 190.002L209.473 189.212Z" fill="#FFB8B8"/>
<path d="M218 194.94C213.916 195.362 210.979 193.543 209 189.879L210.368 183.114C210.368 180.915 211.018 178.773 212.225 176.999C213.432 175.225 215.132 173.912 217.078 173.249L217.804 173L218 194.94Z" fill="white"/>
<path d="M227.308 307L223 306.247L223.648 288L230 289.11L227.308 307Z" fill="#FFB6B6"/>
<path d="M229 311H214V310.859C213.999 310.091 214.15 309.329 214.442 308.619C214.735 307.908 215.164 307.263 215.705 306.718C216.246 306.175 216.89 305.743 217.597 305.448C218.305 305.153 219.064 305.001 219.83 305H228.987L229 311Z" fill="#12142D"/>
<path d="M249 295.918L244.908 298L235 283.07L241.04 280L249 295.918Z" fill="#FFB6B6"/>
<path d="M252 300.29L238.704 307L238.618 306.837C237.928 305.469 237.811 303.884 238.291 302.429C238.772 300.975 239.813 299.771 241.183 299.081L249.308 295L252 300.29Z" fill="#12142D"/>
<path d="M230 166C234.418 166 238 162.195 238 157.5C238 152.805 234.418 149 230 149C225.582 149 222 152.805 222 157.5C222 162.195 225.582 166 230 166Z" fill="#FFB8B8"/>
<path d="M240.647 150.08L233.278 146L223.108 147.668L221 157.491C231.388 159.063 238.582 159.975 241 157.305L240.647 150.08Z" fill="#12142D"/>
<path d="M217.533 210.278C217.533 210.278 211.417 223.255 218.193 242.456L236.919 292L245.869 286.51L236.746 265.193L244.17 239.095C245.876 233.173 246.396 226.953 245.701 220.815C245.166 216.228 243.9 211.559 241.223 209.213C234.897 203.674 217.533 210.278 217.533 210.278Z" fill="#12142D"/>
<path d="M227.916 260L221 295.254L230.209 297L236 266.48L227.916 260Z" fill="#2F2E41"/>
<path d="M236.505 171L226.103 171.141L217 173.27L217.542 210.347C217.542 210.347 234.003 215.088 241.234 208.512L246 173.808C243.054 172.229 239.825 171.274 236.505 171Z" fill="white"/>
<path d="M235 149C237.762 149 240 146.762 240 144C240 141.238 237.762 139 235 139C232.238 139 230 141.238 230 144C230 146.762 232.238 149 235 149Z" fill="#12142D"/>
<path d="M231.043 145.412C231.041 144.661 231.202 143.919 231.516 143.24C231.831 142.56 232.29 141.96 232.86 141.483C233.43 141.006 234.098 140.666 234.814 140.483C235.53 140.302 236.276 140.285 237 140.433C235.811 139.898 234.462 139.857 233.243 140.32C232.024 140.782 231.031 141.712 230.476 142.909C229.921 144.108 229.848 145.479 230.273 146.73C230.698 147.982 231.586 149.015 232.749 149.608C233.12 149.787 233.511 149.917 233.914 150C233.057 149.592 232.331 148.944 231.822 148.131C231.314 147.319 231.044 146.375 231.043 145.412Z" fill="#2F2E41"/>
<defs>
<linearGradient id="paint0_linear_61_101" x1="64.0197" y1="151.004" x2="69.0198" y2="151.004" gradientUnits="userSpaceOnUse">
<stop offset="0.08" stop-color="#3FE946"/>
<stop offset="0.14" stop-color="#43E94A"/>
<stop offset="0.2" stop-color="#4EEB54"/>
<stop offset="0.26" stop-color="#61ED66"/>
<stop offset="0.32" stop-color="#7BF080"/>
<stop offset="0.38" stop-color="#9DF4A0"/>
<stop offset="0.44" stop-color="#C6F9C8"/>
<stop offset="0.49" stop-color="#F7FEF7"/>
<stop offset="0.5" stop-color="white"/>
<stop offset="0.53" stop-color="#E4FCE5"/>
<stop offset="0.59" stop-color="#B6F7B9"/>
<stop offset="0.65" stop-color="#8EF292"/>
<stop offset="0.71" stop-color="#6DEE73"/>
<stop offset="0.78" stop-color="#54EC5B"/>
<stop offset="0.84" stop-color="#42EA4A"/>
<stop offset="0.91" stop-color="#37E83F"/>
<stop offset="0.99" stop-color="#34E83C"/>
</linearGradient>
</defs>
</svg>
