<?xml version="1.0" encoding="UTF-8" standalone="no"?>
<svg
   width="200"
   height="165"
   viewBox="0 0 200 165"
   fill="none"
   version="1.1"
   id="svg7"
   sodipodi:docname="taxi-administration.svg"
   inkscape:version="1.4 (e7c3feb1, 2024-10-09)"
   xmlns:inkscape="http://www.inkscape.org/namespaces/inkscape"
   xmlns:sodipodi="http://sodipodi.sourceforge.net/DTD/sodipodi-0.dtd"
   xmlns="http://www.w3.org/2000/svg"
   xmlns:svg="http://www.w3.org/2000/svg">
  <defs
     id="defs7" />
  <sodipodi:namedview
     id="namedview7"
     pagecolor="#ffffff"
     bordercolor="#666666"
     borderopacity="1.0"
     inkscape:showpageshadow="2"
     inkscape:pageopacity="0.0"
     inkscape:pagecheckerboard="0"
     inkscape:deskcolor="#d1d1d1"
     inkscape:zoom="1.8025245"
     inkscape:cx="94.589562"
     inkscape:cy="110.67811"
     inkscape:window-width="1704"
     inkscape:window-height="908"
     inkscape:window-x="0"
     inkscape:window-y="1035"
     inkscape:window-maximized="0"
     inkscape:current-layer="svg7" />
  <path
     fill-rule="evenodd"
     clip-rule="evenodd"
     d="m 69.75,-4.7501 c -1.6129,0 -2.925,-1.3122 -2.925,-2.925 0,-1.613 1.3121,-2.925 2.925,-2.925 1.6128,0 2.925,1.312 2.925,2.925 0,1.6128 -1.3122,2.925 -2.925,2.925 z"
     fill="#ececfe"
     id="path1" />
  <path
     fill-rule="evenodd"
     clip-rule="evenodd"
     d="m -15.075,141.5 c -1.61285,0 -2.925,-1.312 -2.925,-2.925 0,-1.613 1.31215,-2.925 2.925,-2.925 1.61285,0 2.925,1.312 2.925,2.925 0,1.613 -1.31215,2.925 -2.925,2.925 z"
     fill="#ececfe"
     id="path2" />
  <path
     fill-rule="evenodd"
     clip-rule="evenodd"
     d="m 63.9,179.525 c -1.6129,0 -2.925,-1.312 -2.925,-2.925 0,-1.613 1.3121,-2.925 2.925,-2.925 1.6128,0 2.925,1.312 2.925,2.925 0,1.613 -1.3122,2.925 -2.925,2.925 z"
     fill="#ececfe"
     id="path3" />
  <path
     fill-rule="evenodd"
     clip-rule="evenodd"
     d="m 172.125,176.6 c -1.613,0 -2.925,-1.312 -2.925,-2.925 0,-1.613 1.312,-2.925 2.925,-2.925 1.613,0 2.925,1.312 2.925,2.925 0,1.613 -1.312,2.925 -2.925,2.925 z"
     fill="#ececfe"
     id="path4" />
  <path
     fill-rule="evenodd"
     clip-rule="evenodd"
     d="m 207.225,80.075 c -1.613,0 -2.925,-1.312 -2.925,-2.925 0,-1.613 1.312,-2.925 2.925,-2.925 1.613,0 2.925,1.312 2.925,2.925 0,1.613 -1.312,2.925 -2.925,2.925 z"
     fill="#ececfe"
     id="path5" />
  <path
     fill-rule="evenodd"
     clip-rule="evenodd"
     d="M 58.05,118.1 H 26.0212 c -1.4917,0 -3.0712,-1.638 -3.0712,-3.188 V 56.6749 c 0,-1.3162 1.6087,-2.925 2.925,-2.925 h 52.65 c 1.3162,0 2.925,1.6088 2.925,2.925 V 91.775 c 0,1.609 1.316,2.925 2.925,2.925 1.609,0 2.925,-1.316 2.925,-2.925 V 56.6749 c 0,-4.5045 -4.271,-8.775 -8.775,-8.775 h -52.65 c -4.5045,0 -8.775,4.2705 -8.775,8.775 v 58.2371 c 0,4.738 4.2412,9.038 8.9212,9.038 H 58.05 c 1.6087,0 2.925,-1.316 2.925,-2.925 0,-1.609 -1.3163,-2.925 -2.925,-2.925 z M 75.6,108.652 C 75.3075,100.696 69.867,93.939 62.1742,90.78 c 2.8665,-2.661 4.68,-6.493 4.68,-10.705 0,-8.073 -6.552,-14.6251 -14.625,-14.6251 -8.073,0 -14.625,6.5521 -14.625,14.6251 0,4.241 1.7843,8.044 4.68,10.705 -7.9267,3.247 -13.455,10.267 -13.455,18.545 h 5.85 v -0.556 c 0.3803,-7.722 7.9853,-14.069 17.55,-14.069 9.5648,0 17.55,6.669 17.55,14.625 h 5.85 v -0.673 z M 52.2,88.85 c -4.8555,0 -8.775,-3.92 -8.775,-8.775 0,-4.856 3.9195,-8.775 8.775,-8.775 4.8555,0 8.775,3.919 8.775,8.775 0,4.855 -3.9195,8.775 -8.775,8.775 z m 111.208,61.425 c 0,1.609 -1.316,2.925 -2.925,2.925 -1.608,0 -2.925,-1.316 -2.925,-2.925 0,-1.609 1.317,-2.925 2.925,-2.925 1.609,0 2.925,1.316 2.925,2.925 z m -2.925,-14.625 c -8.073,0 -14.625,6.552 -14.625,14.625 0,8.073 6.552,14.625 14.625,14.625 8.073,0 14.625,-6.552 14.625,-14.625 0,-8.073 -6.552,-14.625 -14.625,-14.625 z m 0,23.4 c -4.855,0 -8.775,-3.92 -8.775,-8.775 0,-4.856 3.92,-8.775 8.775,-8.775 4.856,0 8.775,3.919 8.775,8.775 0,4.855 -3.919,8.775 -8.775,8.775 z m 15.971,-40.95 h 7.517 c 8.921,-0.029 14.625,5.674 14.625,17.521 0,11.846 -5.704,17.55 -14.625,17.55 -1.609,0 -2.925,-1.317 -2.925,-2.925 0,-1.609 1.316,-2.925 2.925,-2.925 5.704,0 8.775,-3.335 8.775,-11.7 0,-8.366 -2.896,-11.496 -8.278,-11.7 h -76.547 c -1.609,0 -2.925,-1.317 -2.925,-2.925 0,-1.492 1.112,-2.75 2.574,-2.925 h 20.826 v -8.775 c 0,-1.609 1.316,-2.925 2.925,-2.925 1.492,0 2.75,1.111 2.925,2.574 v 9.126 h 34.632 l -7.342,-8.629 -3.627,-4.183 -1.374,-1.55 -1.053,-1.17 c -0.644,-0.644 -1.668,-1.17 -3.042,-1.521 -1.287,-0.322 -2.487,-0.439 -4.008,-0.468 h -40.569 c -5.85,0 -9.741,3.539 -12.256,9.857 -0.936,2.34 -1.58,4.885 -1.989,7.43 0,0.146 -0.059,0.321 -0.059,0.468 -0.058,0.438 -0.117,0.848 -0.175,1.228 l -0.146,1.053 v 0.556 c -0.088,1.579 -1.375,2.808 -2.925,2.808 -10.7643,0 -15.2103,4.475 -14.6253,14.449 0.0878,1.609 -1.1407,3.013 -2.7495,3.101 -1.6087,0.088 -3.0127,-1.141 -3.1005,-2.75 -0.7312,-12.343 5.3235,-19.451 17.2283,-20.504 l 0.585,-0.058 0.088,-0.644 0.087,-0.643 c 0.468,-2.955 1.229,-5.88 2.34,-8.658 3.189,-8.044 8.717,-13.221 16.878,-13.543 h 40.569 c 2.37,0 4.125,0.117 6.201,0.643 2.37,0.585 4.388,1.609 5.88,3.189 l 0.555,0.614 1.609,1.813 3.656,4.242 7.927,9.33 z m -80.321,35.1 c 1.609,0 2.925,-1.316 2.925,-2.925 0,-1.609 -1.316,-2.925 -2.925,-2.925 -1.608,0 -2.925,1.316 -2.925,2.925 0,1.609 1.317,2.925 2.925,2.925 z m 14.333,-5.85 h 26.617 c 1.609,0 2.925,1.316 2.925,2.925 0,1.492 -1.111,2.749 -2.574,2.925 h -26.968 c -1.346,6.669 -7.254,11.7 -14.333,11.7 -8.073,0 -14.6245,-6.552 -14.6245,-14.625 0,-8.073 6.5515,-14.625 14.6245,-14.625 7.079,0 12.987,5.031 14.333,11.7 z m -23.108,2.925 c 0,4.855 3.92,8.775 8.775,8.775 4.856,0 8.775,-3.92 8.775,-8.775 0,-4.856 -3.919,-8.775 -8.775,-8.775 -4.855,0 -8.775,3.919 -8.775,8.775 z"
     fill="#e1000f"
     id="path6" />
  <path
     fill-rule="evenodd"
     clip-rule="evenodd"
     d="m 47.517834,141.5 c 1.618336,0 2.942336,-1.3212 2.942336,-2.93656 0,-1.61536 -1.324,-2.93656 -2.942336,-2.93656 H 15.15213 c -2.500936,0 -4.70774,-0.61642 -6.2082814,-1.87939 -1.4123216,-1.17463 -2.61873,-3.22971 -2.61873,-6.93028 V 13.759833 c 0,-2.78978 3.089504,-7.3413947 8.8270114,-7.3413947 h 102.98179 c 1.61854,0 2.94234,-1.3215013 2.94234,-2.9365579 0,-1.615157 -1.3238,-2.93655789 -2.94234,-2.93655789 H 15.15213 c -8.974078,0 -14.71168498,7.19451659 -14.71168498,13.21451049 V 126.81721 c 0,5.11011 1.73602898,8.92714 4.73721258,11.42296 C 8.0905206,140.64865 11.768492,141.5 15.15213,141.5 Z M 144.61494,3.4818804 c 0,-1.615157 1.3238,-2.93655789 2.94234,-2.93655789 h 26.48104 c 3.38394,0 7.0616,0.85155159 9.97476,3.25952909 3.00068,2.4961243 4.73692,6.3136494 4.73692,11.4232604 v 88.096638 c 0,1.61536 -1.3238,2.93656 -2.94234,2.93656 -1.61854,0 -2.94234,-1.3212 -2.94234,-2.93656 V 15.228112 c 0,-3.700063 -1.2061,-5.7556536 -2.61842,-6.9302767 -1.50084,-1.2627701 -3.70784,-1.879397 -6.20858,-1.879397 h -26.48104 c -1.61854,0 -2.94234,-1.3215013 -2.94234,-2.9365579 z M 38.690824,24.037785 H 23.97914 v 5.873116 H 38.690824 Z M 18.094466,18.16467 v 17.619347 h 26.48103 V 18.16467 h -5.884672 m 20.596356,5.873115 c -1.618234,0 -2.942336,1.321401 -2.942336,2.936558 0,1.615057 1.324102,2.936558 2.942336,2.936558 h 32.365706 c 1.618536,0 2.942336,-1.321501 2.942336,-2.936558 0,-1.615157 -1.3238,-2.936558 -2.942336,-2.936558 z m 44.13506,0 c -1.61854,0 -2.94234,1.321401 -2.94234,2.936558 0,1.615057 1.3238,2.936558 2.94234,2.936558 h 64.7314 c 1.61854,0 2.94234,-1.321501 2.94234,-2.936558 0,-1.615157 -1.3238,-2.936558 -2.94234,-2.936558 z m -2.94234,26.429021 c 0,-1.615157 1.3238,-2.936558 2.94234,-2.936558 h 47.07738 c 1.61854,0 2.94234,1.321401 2.94234,2.936558 0,1.615057 -1.3238,2.936558 -2.94234,2.936558 h -47.07738 c -1.61854,0 -2.94234,-1.321501 -2.94234,-2.936558 z m 0,11.746232 c 0,-1.615157 1.3238,-2.936558 2.94234,-2.936558 h 23.53868 c 1.61854,0 2.94234,1.321401 2.94234,2.936558 0,1.615056 -1.3238,2.936558 -2.94234,2.936558 h -23.53868 c -1.61854,0 -2.94234,-1.321502 -2.94234,-2.936558 z m 2.94234,8.809573 c -1.61854,0 -2.94234,1.3212 -2.94234,2.936558 0,1.615358 1.3238,2.936558 2.94234,2.936558 h 14.71168 c 1.61854,0 2.94234,-1.3212 2.94234,-2.936558 0,-1.615358 -1.3238,-2.936558 -2.94234,-2.936558 z m 23.53868,2.936558 c 0,-1.615358 1.3238,-2.936558 2.94234,-2.936558 h 14.71168 c 1.61854,0 2.94234,1.3212 2.94234,2.936558 0,1.615358 -1.3238,2.936558 -2.94234,2.936558 h -14.71168 c -1.61854,0 -2.94234,-1.3212 -2.94234,-2.936558 z"
     fill="#000091"
     id="path7"
     style="stroke-width:1.00494" />
</svg>
